<?xml version="1.0" encoding="UTF-8" standalone="no"?>
<!-- Created with Inkscape (http://www.inkscape.org/) -->

<svg
   xmlns:dc="http://purl.org/dc/elements/1.1/"
   xmlns:cc="http://creativecommons.org/ns#"
   xmlns:rdf="http://www.w3.org/1999/02/22-rdf-syntax-ns#"
   xmlns:svg="http://www.w3.org/2000/svg"
   xmlns="http://www.w3.org/2000/svg"
   xmlns:sodipodi="http://sodipodi.sourceforge.net/DTD/sodipodi-0.dtd"
   xmlns:inkscape="http://www.inkscape.org/namespaces/inkscape"
   width="210mm"
   height="297mm"
   viewBox="0 0 210 297"
   version="1.1"
   id="svg8"
   inkscape:version="0.92.5 (2060ec1f9f, 2020-04-08)"
   sodipodi:docname="pipelib.svg">
  <defs
     id="defs2" />
  <sodipodi:namedview
     id="base"
     pagecolor="#ffffff"
     bordercolor="#666666"
     borderopacity="1.0"
     inkscape:pageopacity="0.0"
     inkscape:pageshadow="2"
     inkscape:zoom="0.35"
     inkscape:cx="-112.85714"
     inkscape:cy="548.57143"
     inkscape:document-units="mm"
     inkscape:current-layer="g1498"
     showgrid="false"
     inkscape:window-width="1848"
     inkscape:window-height="1016"
     inkscape:window-x="72"
     inkscape:window-y="1107"
     inkscape:window-maximized="1" />
  <metadata
     id="metadata5">
    <rdf:RDF>
      <cc:Work
         rdf:about="">
        <dc:format>image/svg+xml</dc:format>
        <dc:type
           rdf:resource="http://purl.org/dc/dcmitype/StillImage" />
        <dc:title></dc:title>
      </cc:Work>
    </rdf:RDF>
  </metadata>
  <g
     inkscape:label="Layer 1"
     inkscape:groupmode="layer"
     id="layer1">
    <g
       id="g1498"
       transform="translate(-66.52381,11.339286)">
      <path
         style="fill:#13e500;stroke-width:0.26458335;fill-opacity:1"
         d="m 94.863613,284.87642 c -0.03581,-0.0364 -0.125103,-37.39224 -0.198438,-83.01303 l -0.133334,-82.94687 -14.419792,-0.13229 -14.419792,-0.1323 -0.06702,-39.224473 -0.06702,-39.22448 H 173.24452 280.9308 v 39.158334 c 0,21.537089 -0.0298,39.185529 -0.0661,39.218769 -0.0364,0.0332 -6.55505,0.12254 -14.48594,0.19844 l -14.41979,0.138 -0.13334,82.94687 c -0.0733,45.62079 -0.16263,82.97664 -0.19843,83.01303 -0.0358,0.0364 -35.30761,0.0661 -78.38177,0.0661 -43.07417,0 -78.345971,-0.0298 -78.381777,-0.0661 z"
         id="path1512"
         inkscape:connector-curvature="0"
         inkscape:export-xdpi="29.47459"
         inkscape:export-ydpi="29.47459" />
      <path
         style="fill:#0fb000;stroke-width:0.26458335;fill-opacity:1"
         d="m 94.862985,201.79725 -0.06656,-83.14532 -14.618229,-0.0684 -14.61823,-0.0684 V 79.35907 40.202977 H 173.24539 280.9308 v 39.156093 39.15609 l -14.61823,0.0684 -14.61822,0.0684 -0.0666,83.14532 -0.0666,83.14531 h -4.89437 c -2.69191,0 -4.92368,-0.0298 -4.95948,-0.0661 -0.0358,-0.0364 -0.12511,-37.39224 -0.19844,-83.01303 l -0.13333,-82.94687 h -68.13014 -68.13022 l -0.13333,82.94687 c -0.0733,45.62079 -0.16263,82.97664 -0.19844,83.01303 -0.0358,0.0364 -2.26757,0.0661 -4.959477,0.0661 H 94.929547 Z M 270.74435,79.361311 V 50.389436 H 173.24539 75.746424 l -0.06814,28.707292 c -0.03748,15.78901 -0.01139,28.856282 0.05798,29.038372 0.100718,0.2644 19.75309,0.31769 97.567096,0.26459 l 97.44099,-0.0665 z"
         id="path1508"
         inkscape:connector-curvature="0"
         inkscape:export-xdpi="29.47459"
         inkscape:export-ydpi="29.47459" />
      <text
         xml:space="preserve"
         style="font-style:normal;font-variant:normal;font-weight:normal;font-stretch:normal;font-size:10.58333302px;line-height:1.25;font-family:Impact;-inkscape-font-specification:Impact;letter-spacing:0px;word-spacing:0px;fill:#0fb000;fill-opacity:1;stroke:none;stroke-width:0.26458332"
         x="158.75"
         y="97.428566"
         id="text1518"
         inkscape:export-xdpi="29.47459"
         inkscape:export-ydpi="29.47459"><tspan
           sodipodi:role="line"
           id="tspan1516"
           x="158.75"
           y="97.428566"
           style="font-style:normal;font-variant:normal;font-weight:normal;font-stretch:normal;font-size:35.27777863px;font-family:Impact;-inkscape-font-specification:Impact;fill:#0fb000;fill-opacity:1;stroke-width:0.26458332">PIPELIB</tspan></text>
    </g>
  </g>
</svg>
